inDegrees=yes
name=ik_S53_A01_T01
DataType=double
version=3
OpenSimVersion=4.3-2021-08-27-4bc7ad9
endheader
time	pelvis_tilt	pelvis_list	pelvis_rotation	pelvis_tx	pelvis_ty	pelvis_tz	hip_flexion_r	hip_adduction_r	hip_rotation_r	knee_angle_r	knee_angle_r_beta	ankle_angle_r	subtalar_angle_r	mtp_angle_r	hip_flexion_l	hip_adduction_l	hip_rotation_l	knee_angle_l	knee_angle_l_beta	ankle_angle_l	subtalar_angle_l	mtp_angle_l	lumbar_extension	lumbar_bending	lumbar_rotation	arm_flex_r	arm_add_r	arm_rot_r	elbow_flex_r	pro_sup_r	wrist_flex_r	wrist_dev_r	arm_flex_l	arm_add_l	arm_rot_l	elbow_flex_l	pro_sup_l	wrist_flex_l	wrist_dev_l
36.24999999999923	1.675698378430919	2.305266891841534	-78.95793959310768	0	0.9399999999999999	0	-2.686095387956827	-9.226366720179726	-15.10060769188714	29.102543382338	0.5079352027262851	0	0	0	2.798403585895636	3.822336532066619	-7.537081962332254	-6.822667612975975	-0.119078013615613	0	0	0	0	0	0	43.3438150108647	-43.3438150108647	4.985507985640988	84.80581852383861	85.01449228810935	0	0	43.3438150108647	-43.3438150108647	4.985507985640988	84.80581852383861	85.01449228810685	0	0
36.26666666666589	1.578264464634009	2.16911395715913	-78.73554117498739	0	0.9399999999999999	0	1.10851806526103	-9.874363775114881	-16.07934300256048	30.65862383282848	0.5350939300132604	0	0	0	0.8700461923097965	3.707003811672624	-7.262077039430264	-7.74798586295772	-0.1352278637065864	0	0	0	0	0	0	43.34953310602322	-43.34953310602322	4.985595448632987	84.80699047131034	85.01440482512044	0	0	43.34953310602322	-43.34953310602322	4.985595448632987	84.80699047131034	85.01440482511795	0	0
36.28333333333256	1.318077860199464	1.861744535226365	-78.2282559684507	0	0.9399999999999999	0	1.96622187969589	-9.90285593086422	-16.67656705162395	31.87183060116968	0.5562683826282946	0	0	0	0.03157525533803013	3.407319010277788	-6.653457458312523	-8.03819583723546	-0.140292983279861	0	0	0	0	0	0	43.34995619456501	-43.34995619456501	4.985602800113466	84.80708897655477	85.01439747364009	0	0	43.34995619456501	-43.34995619456501	4.985602800113466	84.80708897655477	85.0143974736376	0	0
36.29999999999922	1.232652549071654	1.699764796132867	-78.00322595239378	0	0.9399999999999999	0	3.31192268033154	-9.554050621767885	-15.93347759325138	30.26430549573566	0.528211776730002	0	0	0	-0.69351788393966	3.272286627826292	-6.502260237459883	-8.071619077297539	-0.1408763288656287	0	0	0	0	0	0	43.35303407302354	-43.35303407302354	4.985649746636356	84.80771802957588	85.01435052711885	0	0	43.35303407302354	-43.35303407302354	4.985649746636356	84.80771802957588	85.01435052711635	0	0
36.31666666666589	1.146099338053727	1.488412907826534	-77.70609505085855	0	0.9399999999999999	0	4.590869370308975	-9.045254012338665	-14.74923252084968	28.17434741925526	0.4917351270667716	0	0	0	-1.336278156954158	3.143113697132174	-6.30996278473858	-8.401832723695332	-0.1466396442302865	0	0	0	0	0	0	43.35542395837823	-43.35542395837823	4.985686638010046	84.80821235018382	85.01431363574646	0	0	43.35542395837823	-43.35542395837823	4.985686638010046	84.80821235018382	85.01431363574397	0	0
36.33333333333255	1.116628946773795	1.392475574163359	-77.51937652229057	0	0.9399999999999999	0	5.563902700119891	-9.089469245759481	-14.29302345384764	29.13013763660963	0.5084168133179575	0	0	0	-1.520598963464872	2.989378862959879	-6.346188532482317	-7.888173480514687	-0.137674599203482	0	0	0	0	0	0	43.35597707152371	-43.35597707152371	4.985696326189839	84.80834216574604	85.01430394756702	0	0	43.35597707152371	-43.35597707152371	4.985696326189839	84.80834216574604	85.01430394756454	0	0
36.34999999999922	0.9854791279224066	1.269894410692622	-76.81564639874874	0	0.9399999999999999	0	5.393866824634972	-9.021228715113862	-15.00195810375903	29.19334266637444	0.5095199491911745	0	0	0	-2.102730555290374	2.69425337128542	-6.038657720012611	-7.621103740122667	-0.1330133529011948	0	0	0	0	0	0	43.35612215470655	-43.35612215470655	4.985698854435388	84.80837604265628	85.0143014193216	0	0	43.35612215470655	-43.35612215470655	4.985698854435388	84.80837604265628	85.01430141931911	0	0
36.36666666666589	0.9242927177334211	1.256306156552836	-76.52569811067374	0	0.9399999999999999	0	6.819885191359288	-7.929300014444918	-12.82147133519732	23.02450165611489	0.401853362530092	0	0	0	-2.556541437187119	2.543923881717336	-6.057248427089325	-7.387753132792665	-0.1289406164917579	0	0	0	0	0	0	43.36341582788018	-43.36341582788018	4.985809862270252	84.80986347572214	85.01419041149069	0	0	43.36341582788018	-43.36341582788018	4.985809862270252	84.80986347572214	85.0141904114882	0	0
36.38333333333255	0.8302068485759201	1.28376170940853	-75.84285121688754	0	0.9399999999999999	0	7.551431641071857	-7.625975090451623	-12.36739598663715	19.89303349265156	0.347198932656277	0	0	0	-2.970851056042104	2.336988746312873	-5.612276767065115	-7.171071162599925	-0.1251588026821863	0	0	0	0	0	0	43.36688910362427	-43.36688910362427	4.98586292327197	84.81057445880363	85.01413735049083	0	0	43.36688910362427	-43.36688910362427	4.98586292327197	84.81057445880363	85.01413735048837	0	0
36.39999999999922	0.8337747865299365	1.284359390445267	-75.84965871565576	0	0.9399999999999999	0	7.721993350563354	-7.557761368158748	-11.78963515404838	16.34002663417849	0.2851872646299816	0	0	0	-3.368457583520373	2.255108305724039	-5.724803706707505	-6.986670552795918	-0.1219404048984211	0	0	0	0	0	0	43.36887058448558	-43.36887058448558	4.985894642699565	84.81099947881506	85.01410563106435	0	0	43.36887058448558	-43.36887058448558	4.985894642699565	84.81099947881506	85.01410563106189	0	0
36.41666666666588	0.8065352734849058	1.371265538162885	-75.0878836803158	0	0.9399999999999999	0	7.71994108475616	-7.656963626917909	-12.54756511752514	16.34597486743921	0.2852910808850578	0	0	0	-3.655058545598265	2.129885599993509	-5.02374091030992	-6.754223796039453	-0.1178834436574384	0	0	0	0	0	0	43.36906043118704	-43.36906043118704	4.98589792337553	84.81104343781561	85.01410235038846	0	0	43.36906043118704	-43.36906043118704	4.98589792337553	84.81104343781561	85.014102350386	0	0
36.43333333333255	0.9452471454125181	1.439453928371073	-73.7132901216756	0	0.9399999999999999	0	7.945832243917543	-7.944060372127611	-12.77096906168901	9.69807095368362	0.1692632692338057	0	0	0	-4.002468382991874	2.195275785330287	-3.664378872472076	-7.033048804112997	-0.1227498580852215	0	0	0	0	0	0	43.37037691877239	-43.37037691877239	4.985920677158212	84.81134832416599	85.01407959660662	0	0	43.37037691877239	-43.37037691877239	4.985920677158212	84.81134832416599	85.01407959660413	0	0
36.44999999999921	1.028522106235729	1.450319800424166	-73.19846367765911	0	0.9399999999999999	0	7.863201322584442	-8.097025519005806	-13.28154734200534	9.708107842370953	0.1694384459880558	0	0	0	-4.090513217650358	2.133272279828654	-3.253257145433953	-6.577028928719374	-0.1147908098050685	0	0	0	0	0	0	43.37057144935919	-43.37057144935919	4.985924036975125	84.81139334360444	85.01407623678985	0	0	43.37057144935919	-43.37057144935919	4.985924036975125	84.81139334360444	85.01407623678736	0	0
36.46666666666588	1.357861844291873	1.558291293885953	-71.53090184456057	0	0.9399999999999999	0	7.642157900514576	-8.663776396568462	-14.91005951624335	9.713819466963772	0.1695381326428384	0	0	0	-4.454000686644447	2.21165000188175	-1.973867538532255	-6.265709107680599	-0.1093572539012224	0	0	0	0	0	0	43.37069375754621	-43.37069375754621	4.985926141880308	84.81142154801219	85.01407413188474	0	0	43.37069375754621	-43.37069375754621	4.985926141880308	84.81142154801219	85.01407413188225	0	0
